<mxfile host="Electron" agent="Mozilla/5.0 (Windows NT 10.0; Win64; x64) AppleWebKit/537.36 (KHTML, like Gecko) draw.io/28.1.2 Chrome/138.0.7204.243 Electron/37.4.0 Safari/537.36" version="28.1.2">
  <diagram name="Seite-1" id="acZaWoT5sOqih1AunUp0">
    <mxGraphModel dx="1188" dy="701" grid="1" gridSize="10" guides="1" tooltips="1" connect="1" arrows="1" fold="1" page="1" pageScale="1" pageWidth="827" pageHeight="1169" math="0" shadow="0">
      <root>
        <mxCell id="0" />
        <mxCell id="1" parent="0" />
        <mxCell id="aT7LFhn5gQMt9fggR3Dg-3" value="" style="edgeStyle=orthogonalEdgeStyle;rounded=0;orthogonalLoop=1;jettySize=auto;html=1;" edge="1" parent="1" source="aT7LFhn5gQMt9fggR3Dg-1" target="aT7LFhn5gQMt9fggR3Dg-2">
          <mxGeometry relative="1" as="geometry" />
        </mxCell>
        <mxCell id="aT7LFhn5gQMt9fggR3Dg-1" value="Start" style="ellipse;whiteSpace=wrap;html=1;aspect=fixed;" vertex="1" parent="1">
          <mxGeometry x="100" y="30" width="80" height="80" as="geometry" />
        </mxCell>
        <mxCell id="aT7LFhn5gQMt9fggR3Dg-5" value="" style="edgeStyle=orthogonalEdgeStyle;rounded=0;orthogonalLoop=1;jettySize=auto;html=1;" edge="1" parent="1" source="aT7LFhn5gQMt9fggR3Dg-2" target="aT7LFhn5gQMt9fggR3Dg-4">
          <mxGeometry relative="1" as="geometry" />
        </mxCell>
        <mxCell id="aT7LFhn5gQMt9fggR3Dg-2" value="print: wie Alt bist Du?" style="rounded=1;whiteSpace=wrap;html=1;" vertex="1" parent="1">
          <mxGeometry x="80" y="140" width="120" height="60" as="geometry" />
        </mxCell>
        <mxCell id="aT7LFhn5gQMt9fggR3Dg-7" value="" style="edgeStyle=orthogonalEdgeStyle;rounded=0;orthogonalLoop=1;jettySize=auto;html=1;" edge="1" parent="1" source="aT7LFhn5gQMt9fggR3Dg-4">
          <mxGeometry relative="1" as="geometry">
            <mxPoint x="140.0344827586207" y="320.0344827586208" as="targetPoint" />
          </mxGeometry>
        </mxCell>
        <mxCell id="aT7LFhn5gQMt9fggR3Dg-4" value="input" style="shape=parallelogram;perimeter=parallelogramPerimeter;whiteSpace=wrap;html=1;fixedSize=1;rounded=1;" vertex="1" parent="1">
          <mxGeometry x="80" y="230" width="120" height="60" as="geometry" />
        </mxCell>
        <mxCell id="aT7LFhn5gQMt9fggR3Dg-15" value="" style="edgeStyle=orthogonalEdgeStyle;rounded=0;orthogonalLoop=1;jettySize=auto;html=1;" edge="1" parent="1" source="aT7LFhn5gQMt9fggR3Dg-11" target="aT7LFhn5gQMt9fggR3Dg-14">
          <mxGeometry relative="1" as="geometry" />
        </mxCell>
        <mxCell id="aT7LFhn5gQMt9fggR3Dg-11" value="ageMaschine" style="rounded=1;whiteSpace=wrap;html=1;" vertex="1" parent="1">
          <mxGeometry x="80" y="320" width="120" height="60" as="geometry" />
        </mxCell>
        <mxCell id="aT7LFhn5gQMt9fggR3Dg-14" value="End" style="ellipse;whiteSpace=wrap;html=1;rounded=1;" vertex="1" parent="1">
          <mxGeometry x="100" y="410" width="80" height="80" as="geometry" />
        </mxCell>
        <mxCell id="aT7LFhn5gQMt9fggR3Dg-18" value="&lt;div style=&quot;text-align: left;&quot;&gt;&lt;span style=&quot;font-size: 14px; background-color: transparent; color: light-dark(rgb(0, 0, 0), rgb(255, 255, 255));&quot;&gt;function()&lt;/span&gt;&lt;/div&gt;&lt;div&gt;&lt;br&gt;&lt;/div&gt;&lt;div style=&quot;text-align: left;&quot;&gt;function definition&lt;/div&gt;&lt;div style=&quot;text-align: left;&quot;&gt;so einfach&lt;/div&gt;&lt;div style=&quot;text-align: left;&quot;&gt;&lt;b&gt;def&lt;/b&gt; &lt;font style=&quot;color: rgb(0, 127, 255);&quot;&gt;funvtion_name&lt;/font&gt;&lt;/div&gt;" style="text;html=1;align=center;verticalAlign=middle;resizable=0;points=[];autosize=1;strokeColor=none;fillColor=none;" vertex="1" parent="1">
          <mxGeometry x="180" y="520" width="120" height="90" as="geometry" />
        </mxCell>
        <mxCell id="aT7LFhn5gQMt9fggR3Dg-20" value="" style="whiteSpace=wrap;html=1;aspect=fixed;" vertex="1" parent="1">
          <mxGeometry x="330" y="390" width="480" height="480" as="geometry" />
        </mxCell>
        <mxCell id="aT7LFhn5gQMt9fggR3Dg-21" value="" style="edgeStyle=orthogonalEdgeStyle;rounded=0;orthogonalLoop=1;jettySize=auto;html=1;" edge="1" parent="1" source="aT7LFhn5gQMt9fggR3Dg-22" target="aT7LFhn5gQMt9fggR3Dg-27">
          <mxGeometry relative="1" as="geometry" />
        </mxCell>
        <mxCell id="aT7LFhn5gQMt9fggR3Dg-22" value="input" style="shape=parallelogram;perimeter=parallelogramPerimeter;whiteSpace=wrap;html=1;fixedSize=1;rounded=1;" vertex="1" parent="1">
          <mxGeometry x="405" y="490" width="120" height="60" as="geometry" />
        </mxCell>
        <mxCell id="aT7LFhn5gQMt9fggR3Dg-23" value="" style="edgeStyle=orthogonalEdgeStyle;rounded=0;orthogonalLoop=1;jettySize=auto;html=1;" edge="1" parent="1" source="aT7LFhn5gQMt9fggR3Dg-27" target="aT7LFhn5gQMt9fggR3Dg-28">
          <mxGeometry relative="1" as="geometry" />
        </mxCell>
        <mxCell id="aT7LFhn5gQMt9fggR3Dg-24" value="Nein" style="edgeLabel;html=1;align=center;verticalAlign=middle;resizable=0;points=[];" vertex="1" connectable="0" parent="aT7LFhn5gQMt9fggR3Dg-23">
          <mxGeometry x="-0.36" relative="1" as="geometry">
            <mxPoint as="offset" />
          </mxGeometry>
        </mxCell>
        <mxCell id="aT7LFhn5gQMt9fggR3Dg-25" value="" style="edgeStyle=orthogonalEdgeStyle;rounded=0;orthogonalLoop=1;jettySize=auto;html=1;" edge="1" parent="1" source="aT7LFhn5gQMt9fggR3Dg-27" target="aT7LFhn5gQMt9fggR3Dg-30">
          <mxGeometry relative="1" as="geometry" />
        </mxCell>
        <mxCell id="aT7LFhn5gQMt9fggR3Dg-26" value="Ja" style="edgeLabel;html=1;align=center;verticalAlign=middle;resizable=0;points=[];" vertex="1" connectable="0" parent="aT7LFhn5gQMt9fggR3Dg-25">
          <mxGeometry x="-0.28" y="1" relative="1" as="geometry">
            <mxPoint as="offset" />
          </mxGeometry>
        </mxCell>
        <mxCell id="aT7LFhn5gQMt9fggR3Dg-27" value="over 50" style="rhombus;whiteSpace=wrap;html=1;rounded=1;" vertex="1" parent="1">
          <mxGeometry x="425" y="580" width="80" height="80" as="geometry" />
        </mxCell>
        <mxCell id="aT7LFhn5gQMt9fggR3Dg-35" value="" style="edgeStyle=orthogonalEdgeStyle;rounded=0;orthogonalLoop=1;jettySize=auto;html=1;" edge="1" parent="1">
          <mxGeometry relative="1" as="geometry">
            <mxPoint x="585.0344827586207" y="660" as="sourcePoint" />
            <mxPoint x="560" y="740" as="targetPoint" />
            <Array as="points">
              <mxPoint x="585" y="740" />
            </Array>
          </mxGeometry>
        </mxCell>
        <mxCell id="aT7LFhn5gQMt9fggR3Dg-28" value="Aha, eines Tages Du wirst Alt auch!" style="rounded=1;whiteSpace=wrap;html=1;" vertex="1" parent="1">
          <mxGeometry x="545" y="620" width="120" height="60" as="geometry" />
        </mxCell>
        <mxCell id="aT7LFhn5gQMt9fggR3Dg-37" value="" style="edgeStyle=orthogonalEdgeStyle;rounded=0;orthogonalLoop=1;jettySize=auto;html=1;" edge="1" parent="1" source="aT7LFhn5gQMt9fggR3Dg-30" target="aT7LFhn5gQMt9fggR3Dg-36">
          <mxGeometry relative="1" as="geometry" />
        </mxCell>
        <mxCell id="aT7LFhn5gQMt9fggR3Dg-30" value="Du bist Alt Geworden" style="rounded=1;whiteSpace=wrap;html=1;" vertex="1" parent="1">
          <mxGeometry x="405" y="700" width="120" height="60" as="geometry" />
        </mxCell>
        <mxCell id="aT7LFhn5gQMt9fggR3Dg-36" value="End" style="ellipse;whiteSpace=wrap;html=1;rounded=1;" vertex="1" parent="1">
          <mxGeometry x="425" y="780" width="80" height="80" as="geometry" />
        </mxCell>
        <mxCell id="aT7LFhn5gQMt9fggR3Dg-39" value="Start" style="ellipse;whiteSpace=wrap;html=1;aspect=fixed;" vertex="1" parent="1">
          <mxGeometry x="435" y="410" width="60" height="60" as="geometry" />
        </mxCell>
        <mxCell id="aT7LFhn5gQMt9fggR3Dg-44" value="&lt;div style=&quot;text-align: left;&quot;&gt;&lt;span style=&quot;background-color: transparent; color: light-dark(rgb(0, 0, 0), rgb(255, 255, 255));&quot;&gt;PC CODE&lt;/span&gt;&lt;/div&gt;&lt;div style=&quot;text-align: left;&quot;&gt;&lt;span style=&quot;background-color: transparent; color: light-dark(rgb(0, 0, 0), rgb(255, 255, 255));&quot;&gt;&lt;br&gt;&lt;/span&gt;&lt;/div&gt;&lt;div style=&quot;text-align: left;&quot;&gt;&lt;span style=&quot;background-color: transparent; color: light-dark(rgb(0, 0, 0), rgb(255, 255, 255));&quot;&gt;Start&lt;/span&gt;&lt;/div&gt;&lt;div style=&quot;text-align: left;&quot;&gt;&lt;span style=&quot;white-space: pre;&quot;&gt;&#x9;&lt;/span&gt;DEF ageMaschine(age)&lt;/div&gt;&lt;div style=&quot;text-align: left;&quot;&gt;&amp;nbsp;&lt;span style=&quot;white-space: pre;&quot;&gt;&#x9;&lt;/span&gt;&lt;span style=&quot;white-space: pre;&quot;&gt;&#x9;&lt;/span&gt;WENN age groÃŸe als 50&lt;br&gt;&lt;/div&gt;&lt;div style=&quot;text-align: left;&quot;&gt;&lt;span style=&quot;white-space: pre;&quot;&gt;&#x9;&lt;/span&gt;&lt;span style=&quot;white-space: pre;&quot;&gt;&#x9;&lt;/span&gt;&lt;span style=&quot;white-space: pre;&quot;&gt;&#x9;&lt;/span&gt;OUTPUT: Du bist Alt Geworden&lt;br&gt;&lt;/div&gt;&lt;div style=&quot;text-align: left;&quot;&gt;&lt;span style=&quot;white-space: pre;&quot;&gt;&#x9;&lt;/span&gt;&lt;span style=&quot;white-space: pre;&quot;&gt;&#x9;&lt;/span&gt;SONST&lt;br&gt;&lt;/div&gt;&lt;div style=&quot;text-align: left;&quot;&gt;&lt;span style=&quot;white-space: pre;&quot;&gt;&#x9;&lt;/span&gt;&lt;span style=&quot;white-space: pre;&quot;&gt;&#x9;&lt;/span&gt;OUTPUT:&amp;nbsp;&lt;span style=&quot;background-color: transparent; color: light-dark(rgb(0, 0, 0), rgb(255, 255, 255)); text-align: center;&quot;&gt;Aha, eines Tages Du wirst Alt auch!&lt;/span&gt;&lt;br&gt;&lt;/div&gt;" style="text;html=1;align=center;verticalAlign=middle;whiteSpace=wrap;rounded=0;" vertex="1" parent="1">
          <mxGeometry x="530" y="410" width="260" height="120" as="geometry" />
        </mxCell>
      </root>
    </mxGraphModel>
  </diagram>
</mxfile>
